<svg width="24" height="24" viewBox="0 0 24 24" fill="none" xmlns="http://www.w3.org/2000/svg">
<path d="M12 1C9.51472 1 7.5 3.01472 7.5 5.5C7.5 7.98528 9.51472 10 12 10C14.4853 10 16.5 7.98528 16.5 5.5C16.5 3.01472 14.4853 1 12 1Z" fill="#8D7FF3"/>
<path d="M5 21.023V16.1246C4.99914 15.2168 5.50678 14.3342 6.44414 13.6139C7.3815 12.8935 8.69616 12.3756 10.1841 12.1405C11.672 11.9054 13.25 11.9664 14.6732 12.3138C16.0964 12.6613 17.2851 13.2758 18.055 14.0621C18.2234 14.227 18.3697 14.3994 18.4925 14.5777C18.607 14.7458 18.7035 14.9181 18.7812 15.0933C18.9255 15.4305 18.999 15.7768 19 16.1246V21.023C19.0002 21.1246 18.9664 21.2252 18.9006 21.3191C18.8347 21.413 18.738 21.4983 18.6161 21.5702C18.4942 21.642 18.3494 21.699 18.19 21.7378C18.0307 21.7766 17.8599 21.7965 17.6875 21.7964H6.3125C6.14008 21.7965 5.9693 21.7766 5.80996 21.7378C5.65061 21.699 5.50583 21.642 5.38391 21.5702C5.26199 21.4983 5.16532 21.413 5.09944 21.3191C5.03356 21.2252 4.99977 21.1246 5 21.023Z" fill="#8D7FF3"/>
<path d="M0.99975 6H11.0002C11.2654 6 11.5197 6.10533 11.7072 6.29282C11.8947 6.48031 12 6.7346 12 6.99975V17.0002C12 17.2654 11.8947 17.5197 11.7072 17.7072C11.5197 17.8947 11.2654 18 11.0002 18H0.99975C0.7346 18 0.480309 17.8947 0.29282 17.7072C0.105331 17.5197 0 17.2654 0 17.0002L0 6.99975C0 6.7346 0.105331 6.48031 0.29282 6.29282C0.480309 6.10533 0.7346 6 0.99975 6Z" fill="#201F47"/>
<path d="M5.82886 8.53853C5.7044 8.59756 5.61243 8.78151 5.42848 9.14941L5.30381 9.39873C5.0682 9.86996 4.95039 10.1056 4.79301 10.3098C4.65335 10.4909 4.49093 10.6534 4.30976 10.793C4.10558 10.9504 3.86996 11.0682 3.39873 11.3038L3.14941 11.4285C2.78151 11.6124 2.59756 11.7044 2.53853 11.8289C2.48716 11.9372 2.48716 12.0628 2.53853 12.1711C2.59756 12.2956 2.78151 12.3876 3.14941 12.5715L3.39873 12.6962C3.86996 12.9318 4.10558 13.0496 4.30976 13.207C4.49093 13.3466 4.65335 13.5091 4.79301 13.6902C4.95039 13.8944 5.0682 14.13 5.30381 14.6013L5.42848 14.8506C5.61243 15.2185 5.7044 15.4024 5.82886 15.4615C5.93717 15.5128 6.06283 15.5128 6.17114 15.4615C6.2956 15.4024 6.38757 15.2185 6.57152 14.8506L6.69619 14.6013C6.9318 14.13 7.04961 13.8944 7.20699 13.6902C7.34665 13.5091 7.50907 13.3466 7.69024 13.207C7.89442 13.0496 8.13004 12.9318 8.60127 12.6962L8.85059 12.5715C9.21849 12.3876 9.40244 12.2956 9.46147 12.1711C9.51284 12.0628 9.51284 11.9372 9.46147 11.8289C9.40244 11.7044 9.21849 11.6124 8.85059 11.4285L8.60127 11.3038C8.13004 11.0682 7.89442 10.9504 7.69024 10.793C7.50907 10.6534 7.34665 10.4909 7.20699 10.3098C7.04961 10.1056 6.9318 9.86997 6.69619 9.39874L6.57152 9.14941C6.38757 8.78151 6.2956 8.59756 6.17114 8.53853C6.06283 8.48716 5.93717 8.48716 5.82886 8.53853Z" fill="white"/>
</svg>
