<svg width="960" height="960" viewBox="0 0 960 960" fill="none" xmlns="http://www.w3.org/2000/svg">
<mask id="mask0_130_2127" style="mask-type:alpha" maskUnits="userSpaceOnUse" x="0" y="0" width="960" height="960">
<rect width="960" height="960" fill="#D9D9D9"/>
</mask>
<g mask="url(#mask0_130_2127)">
<path d="M120.031 579.977C114.698 579.977 110.031 577.978 106.031 573.978C102.031 569.978 100.031 565.311 100.031 559.978C100.031 554.644 102.031 549.978 106.031 545.978C110.031 541.978 114.698 539.978 120.031 539.978C125.365 539.978 130.031 541.978 134.031 545.978C138.031 549.978 140.031 554.644 140.031 559.978C140.031 565.311 138.031 569.978 134.031 573.978C130.031 577.978 125.365 579.977 120.031 579.977ZM120.031 419.978C114.698 419.978 110.031 417.978 106.031 413.978C102.031 409.978 100.031 405.311 100.031 399.978C100.031 394.644 102.031 389.978 106.031 385.978C110.031 381.978 114.698 379.978 120.031 379.978C125.365 379.978 130.031 381.978 134.031 385.978C138.031 389.978 140.031 394.644 140.031 399.978C140.031 405.311 138.031 409.978 134.031 413.978C130.031 417.978 125.365 419.978 120.031 419.978ZM240.031 759.977C228.698 759.977 219.198 756.144 211.531 748.477C203.865 740.811 200.031 731.311 200.031 719.977C200.031 708.644 203.865 699.144 211.531 691.477C219.198 683.811 228.698 679.977 240.031 679.977C251.365 679.977 260.865 683.811 268.531 691.477C276.198 699.144 280.031 708.644 280.031 719.977C280.031 731.311 276.198 740.811 268.531 748.477C260.865 756.144 251.365 759.977 240.031 759.977ZM240.031 599.977C228.698 599.977 219.198 596.144 211.531 588.478C203.865 580.811 200.031 571.311 200.031 559.978C200.031 548.644 203.865 539.144 211.531 531.478C219.198 523.811 228.698 519.978 240.031 519.978C251.365 519.978 260.865 523.811 268.531 531.478C276.198 539.144 280.031 548.644 280.031 559.978C280.031 571.311 276.198 580.811 268.531 588.478C260.865 596.144 251.365 599.977 240.031 599.977ZM240.031 439.978C228.698 439.978 219.198 436.144 211.531 428.478C203.865 420.811 200.031 411.311 200.031 399.978C200.031 388.644 203.865 379.144 211.531 371.478C219.198 363.811 228.698 359.978 240.031 359.978C251.365 359.978 260.865 363.811 268.531 371.478C276.198 379.144 280.031 388.644 280.031 399.978C280.031 411.311 276.198 420.811 268.531 428.478C260.865 436.144 251.365 439.978 240.031 439.978ZM240.031 279.978C228.698 279.978 219.198 276.144 211.531 268.478C203.865 260.811 200.031 251.311 200.031 239.978C200.031 228.644 203.865 219.144 211.531 211.478C219.198 203.811 228.698 199.978 240.031 199.978C251.365 199.978 260.865 203.811 268.531 211.478C276.198 219.144 280.031 228.644 280.031 239.978C280.031 251.311 276.198 260.811 268.531 268.478C260.865 276.144 251.365 279.978 240.031 279.978ZM400.031 619.977C383.365 619.977 369.198 614.144 357.531 602.477C345.865 590.811 340.031 576.644 340.031 559.978C340.031 543.311 345.865 529.144 357.531 517.478C369.198 505.811 383.365 499.978 400.031 499.978C416.698 499.978 430.865 505.811 442.531 517.478C454.198 529.144 460.031 543.311 460.031 559.978C460.031 576.644 454.198 590.811 442.531 602.477C430.865 614.144 416.698 619.977 400.031 619.977ZM400.031 459.978C383.365 459.978 369.198 454.144 357.531 442.478C345.865 430.811 340.031 416.644 340.031 399.978C340.031 383.311 345.865 369.144 357.531 357.478C369.198 345.811 383.365 339.978 400.031 339.978C416.698 339.978 430.865 345.811 442.531 357.478C454.198 369.144 460.031 383.311 460.031 399.978C460.031 416.644 454.198 430.811 442.531 442.478C430.865 454.144 416.698 459.978 400.031 459.978ZM400.031 759.977C388.698 759.977 379.198 756.144 371.531 748.477C363.865 740.811 360.031 731.311 360.031 719.977C360.031 708.644 363.865 699.144 371.531 691.477C379.198 683.811 388.698 679.977 400.031 679.977C411.365 679.977 420.865 683.811 428.531 691.477C436.198 699.144 440.031 708.644 440.031 719.977C440.031 731.311 436.198 740.811 428.531 748.477C420.865 756.144 411.365 759.977 400.031 759.977ZM400.031 279.978C388.698 279.978 379.198 276.144 371.531 268.478C363.865 260.811 360.031 251.311 360.031 239.978C360.031 228.644 363.865 219.144 371.531 211.478C379.198 203.811 388.698 199.978 400.031 199.978C411.365 199.978 420.865 203.811 428.531 211.478C436.198 219.144 440.031 228.644 440.031 239.978C440.031 251.311 436.198 260.811 428.531 268.478C420.865 276.144 411.365 279.978 400.031 279.978ZM400.031 859.977C394.698 859.977 390.031 857.977 386.031 853.977C382.031 849.977 380.031 845.311 380.031 839.977C380.031 834.644 382.031 829.977 386.031 825.977C390.031 821.977 394.698 819.977 400.031 819.977C405.365 819.977 410.031 821.977 414.031 825.977C418.031 829.977 420.031 834.644 420.031 839.977C420.031 845.311 418.031 849.977 414.031 853.977C410.031 857.977 405.365 859.977 400.031 859.977ZM400.031 139.978C394.698 139.978 390.031 137.978 386.031 133.978C382.031 129.978 380.031 125.311 380.031 119.978C380.031 114.644 382.031 109.978 386.031 105.978C390.031 101.978 394.698 99.9775 400.031 99.9775C405.365 99.9775 410.031 101.978 414.031 105.978C418.031 109.978 420.031 114.644 420.031 119.978C420.031 125.311 418.031 129.978 414.031 133.978C410.031 137.978 405.365 139.978 400.031 139.978ZM560.031 619.977C543.365 619.977 529.198 614.144 517.531 602.477C505.865 590.811 500.031 576.644 500.031 559.978C500.031 543.311 505.865 529.144 517.531 517.478C529.198 505.811 543.365 499.978 560.031 499.978C576.698 499.978 590.865 505.811 602.531 517.478C614.198 529.144 620.031 543.311 620.031 559.978C620.031 576.644 614.198 590.811 602.531 602.477C590.865 614.144 576.698 619.977 560.031 619.977ZM560.031 459.978C543.365 459.978 529.198 454.144 517.531 442.478C505.865 430.811 500.031 416.644 500.031 399.978C500.031 383.311 505.865 369.144 517.531 357.478C529.198 345.811 543.365 339.978 560.031 339.978C576.698 339.978 590.865 345.811 602.531 357.478C614.198 369.144 620.031 383.311 620.031 399.978C620.031 416.644 614.198 430.811 602.531 442.478C590.865 454.144 576.698 459.978 560.031 459.978ZM560.031 759.977C548.698 759.977 539.198 756.144 531.531 748.477C523.865 740.811 520.031 731.311 520.031 719.977C520.031 708.644 523.865 699.144 531.531 691.477C539.198 683.811 548.698 679.977 560.031 679.977C571.365 679.977 580.865 683.811 588.531 691.477C596.198 699.144 600.031 708.644 600.031 719.977C600.031 731.311 596.198 740.811 588.531 748.477C580.865 756.144 571.365 759.977 560.031 759.977ZM560.031 279.978C548.698 279.978 539.198 276.144 531.531 268.478C523.865 260.811 520.031 251.311 520.031 239.978C520.031 228.644 523.865 219.144 531.531 211.478C539.198 203.811 548.698 199.978 560.031 199.978C571.365 199.978 580.865 203.811 588.531 211.478C596.198 219.144 600.031 228.644 600.031 239.978C600.031 251.311 596.198 260.811 588.531 268.478C580.865 276.144 571.365 279.978 560.031 279.978ZM560.031 859.977C554.698 859.977 550.031 857.977 546.031 853.977C542.031 849.977 540.031 845.311 540.031 839.977C540.031 834.644 542.031 829.977 546.031 825.977C550.031 821.977 554.698 819.977 560.031 819.977C565.365 819.977 570.031 821.977 574.031 825.977C578.031 829.977 580.031 834.644 580.031 839.977C580.031 845.311 578.031 849.977 574.031 853.977C570.031 857.977 565.365 859.977 560.031 859.977ZM560.031 139.978C554.698 139.978 550.031 137.978 546.031 133.978C542.031 129.978 540.031 125.311 540.031 119.978C540.031 114.644 542.031 109.978 546.031 105.978C550.031 101.978 554.698 99.9775 560.031 99.9775C565.365 99.9775 570.031 101.978 574.031 105.978C578.031 109.978 580.031 114.644 580.031 119.978C580.031 125.311 578.031 129.978 574.031 133.978C570.031 137.978 565.365 139.978 560.031 139.978ZM720.031 759.977C708.698 759.977 699.198 756.144 691.531 748.477C683.865 740.811 680.031 731.311 680.031 719.977C680.031 708.644 683.865 699.144 691.531 691.477C699.198 683.811 708.698 679.977 720.031 679.977C731.365 679.977 740.865 683.811 748.531 691.477C756.198 699.144 760.031 708.644 760.031 719.977C760.031 731.311 756.198 740.811 748.531 748.477C740.865 756.144 731.365 759.977 720.031 759.977ZM720.031 599.977C708.698 599.977 699.198 596.144 691.531 588.478C683.865 580.811 680.031 571.311 680.031 559.978C680.031 548.644 683.865 539.144 691.531 531.478C699.198 523.811 708.698 519.978 720.031 519.978C731.365 519.978 740.865 523.811 748.531 531.478C756.198 539.144 760.031 548.644 760.031 559.978C760.031 571.311 756.198 580.811 748.531 588.478C740.865 596.144 731.365 599.977 720.031 599.977ZM720.031 439.978C708.698 439.978 699.198 436.144 691.531 428.478C683.865 420.811 680.031 411.311 680.031 399.978C680.031 388.644 683.865 379.144 691.531 371.478C699.198 363.811 708.698 359.978 720.031 359.978C731.365 359.978 740.865 363.811 748.531 371.478C756.198 379.144 760.031 388.644 760.031 399.978C760.031 411.311 756.198 420.811 748.531 428.478C740.865 436.144 731.365 439.978 720.031 439.978ZM720.031 279.978C708.698 279.978 699.198 276.144 691.531 268.478C683.865 260.811 680.031 251.311 680.031 239.978C680.031 228.644 683.865 219.144 691.531 211.478C699.198 203.811 708.698 199.978 720.031 199.978C731.365 199.978 740.865 203.811 748.531 211.478C756.198 219.144 760.031 228.644 760.031 239.978C760.031 251.311 756.198 260.811 748.531 268.478C740.865 276.144 731.365 279.978 720.031 279.978ZM840.031 579.977C834.698 579.977 830.031 577.978 826.031 573.978C822.031 569.978 820.031 565.311 820.031 559.978C820.031 554.644 822.031 549.978 826.031 545.978C830.031 541.978 834.698 539.978 840.031 539.978C845.365 539.978 850.031 541.978 854.031 545.978C858.031 549.978 860.031 554.644 860.031 559.978C860.031 565.311 858.031 569.978 854.031 573.978C850.031 577.978 845.365 579.977 840.031 579.977ZM840.031 419.978C834.698 419.978 830.031 417.978 826.031 413.978C822.031 409.978 820.031 405.311 820.031 399.978C820.031 394.644 822.031 389.978 826.031 385.978C830.031 381.978 834.698 379.978 840.031 379.978C845.365 379.978 850.031 381.978 854.031 385.978C858.031 389.978 860.031 394.644 860.031 399.978C860.031 405.311 858.031 409.978 854.031 413.978C850.031 417.978 845.365 419.978 840.031 419.978Z" fill="#625BF6"/>
</g>
</svg>
